<svg xmlns="http://www.w3.org/2000/svg" xml:space="preserve" fill-rule="evenodd" stroke-linecap="round"
  stroke-linejoin="round" stroke-miterlimit="2" clip-rule="evenodd" viewBox="0 0 1249 458">
  <defs>
    <linearGradient id="logoGradient" x1="0%" y1="100%" x2="100%" y2="0%">
      <stop offset="0%" stop-color="#22d3ee" /> <!-- cyan-300 -->
      <stop offset="100%" stop-color="#67e8f9" /> <!-- amber-200 -->
    </linearGradient>
  </defs>
  <g fill="url(#logoGradient)">
    <path
      d="M54.753 346.549c18.554 18.555 41.211 27.833 67.968 27.833 27.93 0 38.928-5.03 38.928-21.436 0-8.594-4.748-18.115-20.178-22.217-10.937-2.539-28.32-6.933-52.148-13.183-19.336-5.079-35.645-14.454-48.926-28.125-13.086-13.477-19.629-34.18-19.629-62.11 0-21.484 5.371-39.648 16.114-54.492 10.937-14.844 25.097-25.781 42.48-32.812 17.773-7.227 37.207-10.84 58.301-10.84 11.914 0 24.023 1.66 36.328 4.98 13.281 4.102 25.195 9.18 35.742 15.235 11.524 6.445 21.68 13.671 30.469 21.679l-51.563 51.27c-15.039-11.328-31.445-16.992-49.218-16.992-21.289 0-31.854 7.731-31.854 19.645 0 10.743 7.83 16.487 23.65 20.784a1582.717 1582.717 0 0 0 52.442 13.184c19.336 4.883 35.449 13.867 48.34 26.953 13.086 13.281 19.629 34.18 19.629 62.695 0 21.289-5.664 39.649-16.993 55.078-11.328 15.625-26.464 27.246-45.41 34.864-18.945 8.007-38.574 12.011-58.886 12.011-16.993 0-32.325-1.367-45.997-4.101-13.671-2.539-26.464-6.836-38.378-12.891-12.305-6.054-25.196-14.16-38.672-24.316l47.461-62.696ZM314.706 220.866h-61.817l21.094-80.274h40.723V25.163l93.457.586v114.843h62.109l-20.801 80.274h-41.308v99.316c0 26.563 16.601 39.844 49.804 39.844 10.743 0 18.946-1.269 24.61-3.809l-21.362 87.788c-1.837 7.918-15.259 6.548-19.947 6.548-27.929 0-51.172-4.492-69.726-13.476-18.75-8.985-32.91-22.559-42.481-40.723-9.57-17.969-14.355-40.918-14.355-68.847V220.866ZM659.034 130.632a153.18 153.18 0 0 0-19.043-1.758h-5.274c-86.328 4.297-129.492 49.121-129.492 134.472v177.539h93.75V263.346c0-32.226 11.914-48.828 35.742-49.804h5.274c7.812.39 14.16 2.246 19.043 5.566v-88.476ZM833.362 450.553c-29.883 0-58.105-7.031-84.668-21.093-26.562-14.063-47.656-33.301-63.281-57.715-15.821-24.61-23.731-52.149-23.731-82.617 0-22.852 4.59-44.141 13.77-63.868 9.18-19.726 21.777-36.816 37.793-51.269 16.211-14.649 34.668-25.879 55.371-33.692 21.094-7.812 42.676-11.718 64.746-11.718 22.266 0 43.945 3.906 65.039 11.718 20.508 7.422 38.965 18.555 55.371 33.399 16.211 14.844 28.809 32.031 37.793 51.562 9.18 19.727 13.77 41.016 13.77 63.868 0 23.242-4.493 44.531-13.477 63.867-8.984 19.531-21.68 36.816-38.086 51.855-16.601 14.844-35.058 26.074-55.371 33.692-20.508 8.007-42.187 12.011-65.039 12.011Zm-78.223-161.425c0 20.898 7.813 38.867 23.438 53.906 15.43 15.039 33.691 22.558 54.785 22.558 21.289 0 39.648-7.519 55.078-22.558 15.625-15.039 23.438-33.008 23.438-53.906 0-13.672-3.614-26.27-10.84-37.793-7.227-11.524-16.895-20.703-29.004-27.539-11.914-6.836-24.805-10.254-38.672-10.254-13.477 0-26.27 3.418-38.379 10.254-12.109 6.836-21.777 16.015-29.004 27.539-7.226 11.523-10.84 24.121-10.84 37.793ZM1027.98 25.163l93.457-.293v415.429l-93.457 1.172V25.163ZM1241.06 141.178v300.293h-93.457v-300l93.457-.293Zm.293-84.961c0 9.375-2.148 17.676-6.445 24.903-4.297 7.226-10.156 13.086-17.578 17.578-7.422 4.492-15.625 6.738-24.61 6.738-8.984 0-17.089-2.148-24.316-6.445-7.422-4.492-13.281-10.449-17.578-17.871-4.492-7.813-6.738-16.113-6.738-24.903 0-8.984 2.148-17.187 6.445-24.609 4.687-7.617 10.644-13.574 17.871-17.871 7.227-4.297 15.332-6.445 24.316-6.445 8.985 0 17.188 2.148 24.61 6.445 7.226 4.297 13.086 10.254 17.578 17.871 4.297 7.422 6.445 15.625 6.445 24.609Z" />
  </g>
</svg>