<svg xmlns="http://www.w3.org/2000/svg" xml:space="preserve" fill-rule="evenodd" stroke-linejoin="round"
  stroke-miterlimit="2" clip-rule="evenodd" viewBox="0 0 527 576">
  <defs>
    <linearGradient id="logoGradient" x1="0%" y1="100%" x2="100%" y2="0%">
      <stop offset="0%" stop-color="#22d3ee" /> <!-- cyan-300 -->
      <stop offset="100%" stop-color="#67e8f9" /> <!-- amber-200 -->
    </linearGradient>
  </defs>
  <g fill="url(#logoGradient)">
    <path
      d="M424.612 433.294a32.884 32.884 0 0 1 24.794 54.481c-46.792 53.437-116.217 87.307-193.693 87.307C114.753 575.082.172 462.957 0 324.851-.172 186.744 114.131 74.619 255.091 74.619c77.513 0 147.05 33.905 193.97 87.392a32.812 32.812 0 0 1-24.717 54.389c-.754.007-1.446.007-2.069.007a7.1 7.1 0 0 1-5.77-2.964c-35.804-49.547-94.765-81.922-161.343-81.922-108.907 0-197.217 86.628-197.084 193.33.133 106.701 88.658 193.329 197.565 193.329 65.841 0 124.151-31.665 159.948-80.282a11.152 11.152 0 0 1 9.018-4.591c.001-.013.002-.013.003-.013Z" />
    <path
      d="m517.594 339.855-111.416 66.06a18.223 18.223 0 0 1-18.058.274c-5.629-3.109-9.111-8.948-9.111-15.278V258.79c0-6.33 3.482-12.169 9.111-15.277a18.22 18.22 0 0 1 18.058.273l111.416 66.06c5.359 3.178 8.633 8.868 8.633 15.005 0 6.136-3.274 11.826-8.633 15.004Z" />
    <ellipse cx="248.771" cy="324.851" rx="44.424" ry="43.523" />
    <path
      d="M328.597 0c7.484 0 14.662 2.913 19.955 8.098 5.292 5.185 8.266 12.218 8.266 19.551v.002c0 7.333-2.974 14.366-8.266 19.551-5.293 5.185-12.471 8.098-19.955 8.098H166.516c-7.485 0-14.663-2.913-19.955-8.098-5.293-5.185-8.266-12.218-8.266-19.551v-.002c0-7.333 2.973-14.366 8.266-19.551C151.853 2.913 159.031 0 166.516 0h162.081Z" />
  </g>
</svg>